<svg xmlns="http://www.w3.org/2000/svg" version="1.1" xmlns:xlink="http://www.w3.org/1999/xlink" xmlns:svgjs="http://svgjs.dev/svgjs" width="1440" height="560" preserveAspectRatio="none" viewBox="0 0 1440 560"><g mask="url(&quot;#SvgjsMask1027&quot;)" fill="none"><rect width="1440" height="560" x="0" y="0" fill="url(&quot;#SvgjsLinearGradient1028&quot;)"></rect><path d="M65 330L64 691" stroke-width="10" stroke="url(&quot;#SvgjsLinearGradient1029&quot;)" stroke-linecap="round" class="Up"></path><path d="M106 408L105 589" stroke-width="10" stroke="url(&quot;#SvgjsLinearGradient1030&quot;)" stroke-linecap="round" class="Down"></path><path d="M995 233L994 -46" stroke-width="6" stroke="url(&quot;#SvgjsLinearGradient1030&quot;)" stroke-linecap="round" class="Down"></path><path d="M1356 181L1355 -93" stroke-width="8" stroke="url(&quot;#SvgjsLinearGradient1030&quot;)" stroke-linecap="round" class="Down"></path><path d="M1040 230L1039 393" stroke-width="8" stroke="url(&quot;#SvgjsLinearGradient1030&quot;)" stroke-linecap="round" class="Down"></path><path d="M24 131L23 332" stroke-width="10" stroke="url(&quot;#SvgjsLinearGradient1030&quot;)" stroke-linecap="round" class="Down"></path><path d="M712 431L711 629" stroke-width="10" stroke="url(&quot;#SvgjsLinearGradient1029&quot;)" stroke-linecap="round" class="Up"></path><path d="M1340 206L1339 -177" stroke-width="8" stroke="url(&quot;#SvgjsLinearGradient1030&quot;)" stroke-linecap="round" class="Down"></path><path d="M780 233L779 3" stroke-width="8" stroke="url(&quot;#SvgjsLinearGradient1029&quot;)" stroke-linecap="round" class="Up"></path><path d="M1256 473L1255 98" stroke-width="6" stroke="url(&quot;#SvgjsLinearGradient1030&quot;)" stroke-linecap="round" class="Down"></path><path d="M145 77L144 269" stroke-width="8" stroke="url(&quot;#SvgjsLinearGradient1030&quot;)" stroke-linecap="round" class="Down"></path><path d="M805 298L804 461" stroke-width="10" stroke="url(&quot;#SvgjsLinearGradient1030&quot;)" stroke-linecap="round" class="Down"></path><path d="M272 340L271 40" stroke-width="6" stroke="url(&quot;#SvgjsLinearGradient1030&quot;)" stroke-linecap="round" class="Down"></path><path d="M345 369L344 64" stroke-width="6" stroke="url(&quot;#SvgjsLinearGradient1029&quot;)" stroke-linecap="round" class="Up"></path><path d="M446 266L445 620" stroke-width="8" stroke="url(&quot;#SvgjsLinearGradient1030&quot;)" stroke-linecap="round" class="Down"></path><path d="M102 339L101 551" stroke-width="8" stroke="url(&quot;#SvgjsLinearGradient1030&quot;)" stroke-linecap="round" class="Down"></path><path d="M339 307L338 651" stroke-width="6" stroke="url(&quot;#SvgjsLinearGradient1030&quot;)" stroke-linecap="round" class="Down"></path><path d="M991 118L990 463" stroke-width="8" stroke="url(&quot;#SvgjsLinearGradient1029&quot;)" stroke-linecap="round" class="Up"></path><path d="M19 303L18 543" stroke-width="10" stroke="url(&quot;#SvgjsLinearGradient1030&quot;)" stroke-linecap="round" class="Down"></path><path d="M54 71L53 383" stroke-width="6" stroke="url(&quot;#SvgjsLinearGradient1029&quot;)" stroke-linecap="round" class="Up"></path><path d="M201 21L200 -226" stroke-width="8" stroke="url(&quot;#SvgjsLinearGradient1029&quot;)" stroke-linecap="round" class="Up"></path><path d="M1082 3L1081 -169" stroke-width="8" stroke="url(&quot;#SvgjsLinearGradient1030&quot;)" stroke-linecap="round" class="Down"></path><path d="M1023 342L1022 104" stroke-width="6" stroke="url(&quot;#SvgjsLinearGradient1030&quot;)" stroke-linecap="round" class="Down"></path><path d="M1358 416L1357 89" stroke-width="10" stroke="url(&quot;#SvgjsLinearGradient1030&quot;)" stroke-linecap="round" class="Down"></path><path d="M33 316L32 730" stroke-width="8" stroke="url(&quot;#SvgjsLinearGradient1030&quot;)" stroke-linecap="round" class="Down"></path><path d="M945 145L944 -254" stroke-width="6" stroke="url(&quot;#SvgjsLinearGradient1030&quot;)" stroke-linecap="round" class="Down"></path><path d="M797 537L796 934" stroke-width="10" stroke="url(&quot;#SvgjsLinearGradient1030&quot;)" stroke-linecap="round" class="Down"></path><path d="M647 179L646 359" stroke-width="8" stroke="url(&quot;#SvgjsLinearGradient1029&quot;)" stroke-linecap="round" class="Up"></path><path d="M975 22L974 392" stroke-width="8" stroke="url(&quot;#SvgjsLinearGradient1030&quot;)" stroke-linecap="round" class="Down"></path><path d="M445 385L444 -11" stroke-width="6" stroke="url(&quot;#SvgjsLinearGradient1029&quot;)" stroke-linecap="round" class="Up"></path><path d="M210 34L209 380" stroke-width="10" stroke="url(&quot;#SvgjsLinearGradient1030&quot;)" stroke-linecap="round" class="Down"></path><path d="M711 46L710 -265" stroke-width="10" stroke="url(&quot;#SvgjsLinearGradient1030&quot;)" stroke-linecap="round" class="Down"></path><path d="M1436 7L1435 415" stroke-width="6" stroke="url(&quot;#SvgjsLinearGradient1029&quot;)" stroke-linecap="round" class="Up"></path><path d="M1099 473L1098 108" stroke-width="8" stroke="url(&quot;#SvgjsLinearGradient1029&quot;)" stroke-linecap="round" class="Up"></path><path d="M1 453L0 634" stroke-width="10" stroke="url(&quot;#SvgjsLinearGradient1030&quot;)" stroke-linecap="round" class="Down"></path><path d="M967 216L966 -174" stroke-width="10" stroke="url(&quot;#SvgjsLinearGradient1029&quot;)" stroke-linecap="round" class="Up"></path></g><defs><mask id="SvgjsMask1027"><rect width="1440" height="560" fill="#ffffff"></rect></mask><linearGradient x1="0%" y1="50%" x2="100%" y2="50%" gradientUnits="userSpaceOnUse" id="SvgjsLinearGradient1028"><stop stop-color="#0e2a47" offset="0"></stop><stop stop-color="#00459e" offset="1"></stop></linearGradient><linearGradient x1="0%" y1="100%" x2="0%" y2="0%" id="SvgjsLinearGradient1029"><stop stop-color="rgba(28, 83, 142, 0)" offset="0"></stop><stop stop-color="#1c538e" offset="1"></stop></linearGradient><linearGradient x1="0%" y1="0%" x2="0%" y2="100%" id="SvgjsLinearGradient1030"><stop stop-color="rgba(28, 83, 142, 0)" offset="0"></stop><stop stop-color="#1c538e" offset="1"></stop></linearGradient></defs></svg>